<svg width="508" height="508" viewBox="0 0 508 508" fill="none" xmlns="http://www.w3.org/2000/svg">
<g filter="url(#filter0_d_2314_4)">
<rect x="4" width="500" height="500" fill="#1FB2A6"/>
<rect x="4" width="500" height="500" fill="url(#paint0_linear_2314_4)"/>
</g>
<path d="M91.8 314V196.08H159.64L177.4 213.84V241.52L169.72 250.16L182.68 262.96V296.24L164.92 314H91.8ZM111.8 243.44H150.36L157.24 235.44V220.72L150.2 213.68H111.8V243.44ZM111.8 296.4H155.48L162.52 289.36V268.08L155.48 261.04H111.8V296.4ZM208.163 314V295.76L267.843 218.32V214.32H211.683V196.08H294.243V214.32L234.883 291.76V295.76H294.243V314H208.163ZM338.755 314L321.475 296.24V213.84L339.235 196.08H397.795L414.115 212.24L401.315 225.04L389.795 213.68H348.515L341.475 220.72L341.635 289.36L348.515 296.4H379.235L397.635 279.92V266.8H370.755V249.2H414.275V314H397.635V301.84L384.195 314H338.755Z" fill="white"/>
<defs>
<filter id="filter0_d_2314_4" x="0" y="0" width="508" height="508" filterUnits="userSpaceOnUse" color-interpolation-filters="sRGB">
<feFlood flood-opacity="0" result="BackgroundImageFix"/>
<feColorMatrix in="SourceAlpha" type="matrix" values="0 0 0 0 0 0 0 0 0 0 0 0 0 0 0 0 0 0 127 0" result="hardAlpha"/>
<feOffset dy="4"/>
<feGaussianBlur stdDeviation="2"/>
<feComposite in2="hardAlpha" operator="out"/>
<feColorMatrix type="matrix" values="0 0 0 0 0 0 0 0 0 0 0 0 0 0 0 0 0 0 0.25 0"/>
<feBlend mode="normal" in2="BackgroundImageFix" result="effect1_dropShadow_2314_4"/>
<feBlend mode="normal" in="SourceGraphic" in2="effect1_dropShadow_2314_4" result="shape"/>
</filter>
<linearGradient id="paint0_linear_2314_4" x1="4" y1="250.058" x2="504" y2="249.942" gradientUnits="userSpaceOnUse">
<stop stop-color="#5D19E6"/>
<stop offset="1" stop-color="#1FB2A6"/>
</linearGradient>
</defs>
</svg>
